<svg xmlns="http://www.w3.org/2000/svg" width="24" height="24" fill="none"><path fill="#979797" d="M7.29203 7.29299c.17495-.17502.40859-.27895.65573-.29169.24714-.01275.49023.0666.68227.22269l.076.069L12 10.585l3.294-3.29201.076-.069c.1921-.15458.4346-.23273.6808-.21944.2462.01328.4789.11708.6532.29144.1744.17436.2782.40699.2915.65321.0133.24623-.0649.48868-.2195.68079l-.069.077L13.413 12l3.293 3.293.069.076c.1546.1921.2328.4346.2195.6808-.0133.2462-.1171.4788-.2915.6532-.1743.1744-.407.2782-.6532.2914-.2462.0133-.4887-.0648-.6808-.2194l-.077-.068L12 13.414l-3.29297 3.293-.07601.068c-.19211.1546-.43456.2327-.68078.2194-.24623-.0132-.47886-.117-.65322-.2914-.17436-.1744-.27815-.407-.29144-.6532-.01329-.2462.06486-.4887.21945-.6808l.068-.076L10.585 12 7.29203 8.70699l-.068-.077c-.15595-.19184-.2353-.43465-.22274-.68155.01256-.24691.11613-.48041.29074-.65545Z"/></svg>