<svg width="24" height="24" viewBox="0 0 24 24" fill="none" xmlns="http://www.w3.org/2000/svg">
<path fill-rule="evenodd" clip-rule="evenodd" d="M7.75 3C7.75 2.58579 7.41421 2.25 7 2.25C6.58579 2.25 6.25 2.58579 6.25 3V4C6.25 4.08766 6.26504 4.17181 6.29268 4.25H4.63636C3.35466 4.25 2.25 5.24689 2.25 6.55556V9V17.4444C2.25 18.7531 3.35466 19.75 4.63636 19.75H19.3636C20.6453 19.75 21.75 18.7531 21.75 17.4444V9V6.55556C21.75 5.24689 20.6453 4.25 19.3636 4.25H18.7073C18.735 4.17181 18.75 4.08766 18.75 4V3C18.75 2.58579 18.4142 2.25 18 2.25C17.5858 2.25 17.25 2.58579 17.25 3V4C17.25 4.08766 17.265 4.17181 17.2927 4.25H7.70732C7.73496 4.17181 7.75 4.08766 7.75 4V3ZM20.25 8.25V6.55556C20.25 6.146 19.8894 5.75 19.3636 5.75H4.63636C4.11059 5.75 3.75 6.146 3.75 6.55556V8.25H20.25ZM3.75 9.75H20.25V17.4444C20.25 17.854 19.8894 18.25 19.3636 18.25H4.63636C4.11059 18.25 3.75 17.854 3.75 17.4444V9.75Z" fill="#3B3B3B" fill-opacity="0.5" style="fill:#3B3B3B;fill:color(display-p3 0.2314 0.2314 0.2314);fill-opacity:0.5;"/>
</svg>
